<svg width="100" height="100" viewBox="0 0 100 100" fill="none" xmlns="http://www.w3.org/2000/svg">
<path d="M53.2695 73.2539C53.7065 73.6894 54.0532 74.2068 54.2898 74.7766C54.5264 75.3464 54.6482 75.9573 54.6482 76.5742C54.6482 77.1911 54.5264 77.802 54.2898 78.3718C54.0532 78.9416 53.7065 79.459 53.2695 79.8945L50.9492 82.2148C46.5524 86.6116 40.589 89.0817 34.371 89.0817C28.153 89.0817 22.1897 86.6116 17.7929 82.2148C13.3961 77.818 10.926 71.8547 10.926 65.6367C10.926 59.4187 13.3961 53.4554 17.7929 49.0586L27.2148 39.6406C31.4393 35.4056 37.1233 32.9462 43.1024 32.7661C49.0815 32.586 54.9031 34.6988 59.3749 38.6719C59.8366 39.0822 60.2129 39.5795 60.4824 40.1354C60.7519 40.6912 60.9093 41.2946 60.9456 41.9113C60.9818 42.5279 60.8963 43.1457 60.6938 43.7292C60.4914 44.3128 60.1759 44.8508 59.7656 45.3125C59.3552 45.7742 58.8579 46.1505 58.3021 46.42C57.7462 46.6895 57.1428 46.8468 56.5262 46.8831C55.9095 46.9194 55.2918 46.8339 54.7082 46.6314C54.1246 46.4289 53.5866 46.1135 53.1249 45.7031C50.4434 43.3216 46.9532 42.0546 43.3684 42.1613C39.7835 42.2681 36.3749 43.7405 33.8398 46.2773L24.4257 55.6836C21.7881 58.3212 20.3062 61.8987 20.3062 65.6289C20.3062 69.3591 21.7881 72.9365 24.4257 75.5742C27.0634 78.2119 30.6408 79.6937 34.371 79.6937C38.1012 79.6937 41.6787 78.2119 44.3163 75.5742L46.6367 73.2539C47.072 72.8181 47.589 72.4723 48.158 72.2364C48.7271 72.0005 49.3371 71.8791 49.9531 71.8791C50.5691 71.8791 51.179 72.0005 51.7481 72.2364C52.3171 72.4723 52.8341 72.8181 53.2695 73.2539ZM82.207 17.7851C77.8066 13.3951 71.8446 10.9297 65.6288 10.9297C59.4131 10.9297 53.4511 13.3951 49.0507 17.7851L46.7304 20.1055C45.8498 20.9861 45.3551 22.1804 45.3551 23.4258C45.3551 24.6711 45.8498 25.8655 46.7304 26.7461C47.611 27.6267 48.8054 28.1214 50.0507 28.1214C51.2961 28.1214 52.4904 27.6267 53.371 26.7461L55.6913 24.4258C58.329 21.7881 61.9064 20.3063 65.6367 20.3063C69.3669 20.3063 72.9443 21.7881 75.582 24.4258C78.2196 27.0634 79.7015 30.6409 79.7015 34.3711C79.7015 38.1013 78.2196 41.6787 75.582 44.3164L66.164 53.7383C63.6267 56.2741 60.2162 57.7443 56.6304 57.8482C53.0447 57.952 49.5548 56.6816 46.8749 54.2969C46.4133 53.8865 45.8753 53.5711 45.2917 53.3686C44.7081 53.1661 44.0904 53.0806 43.4737 53.1169C42.8571 53.1531 42.2536 53.3105 41.6978 53.58C41.142 53.8495 40.6447 54.2258 40.2343 54.6875C39.8239 55.1492 39.5085 55.6872 39.306 56.2707C39.1036 56.8543 39.018 57.4721 39.0543 58.0887C39.0906 58.7053 39.248 59.3088 39.5174 59.8646C39.7869 60.4204 40.1633 60.9177 40.6249 61.3281C45.0936 65.3003 50.9114 67.4144 56.8877 67.238C62.8639 67.0615 68.5468 64.6078 72.7734 60.3789L82.1953 50.9609C86.5904 46.5616 89.0602 40.598 89.0624 34.3794C89.0646 28.1607 86.599 22.1954 82.207 17.793V17.7851Z" fill="black"/>
</svg>
