<svg width="100" height="100" viewBox="0 0 100 100" fill="none" xmlns="http://www.w3.org/2000/svg">
<path d="M50 12.5C42.2645 12.5 34.8459 15.5729 29.3761 21.0427C23.9062 26.5125 20.8333 33.9311 20.8333 41.6666C20.8333 53.5916 28.2583 65.0958 36.4083 74.0083C40.5778 78.5462 45.1247 82.7222 50 86.4916C54.8752 82.7252 59.4221 78.5519 63.5917 74.0166C71.7417 65.0958 79.1667 53.5958 79.1667 41.6666C79.1667 33.9311 76.0938 26.5125 70.6239 21.0427C65.1541 15.5729 57.7355 12.5 50 12.5ZM50 96.725L47.6375 95.1L47.625 95.0916L47.6 95.0708L47.5167 95.0125L47.2042 94.7916C45.4789 93.5375 43.792 92.2313 42.1458 90.875C37.9266 87.4089 33.9544 83.6526 30.2583 79.6333C21.7417 70.3166 12.5 56.8208 12.5 41.6666C12.5 31.721 16.4509 22.1827 23.4835 15.1501C30.5161 8.11751 40.0544 4.16663 50 4.16663C59.9456 4.16663 69.4839 8.11751 76.5165 15.1501C83.5491 22.1827 87.5 31.721 87.5 41.6666C87.5 56.8208 78.2583 70.3208 69.7417 79.6333C64.9161 84.8819 59.622 89.6796 53.925 93.9666C53.4503 94.3213 52.9711 94.6699 52.4875 95.0125L52.4 95.0708L52.375 95.0916L52.3667 95.0958L50 96.725ZM50 33.3333C47.7899 33.3333 45.6702 34.2113 44.1074 35.7741C42.5446 37.3369 41.6667 39.4565 41.6667 41.6666C41.6667 43.8768 42.5446 45.9964 44.1074 47.5592C45.6702 49.122 47.7899 50 50 50C52.2101 50 54.3298 49.122 55.8926 47.5592C57.4554 45.9964 58.3333 43.8768 58.3333 41.6666C58.3333 39.4565 57.4554 37.3369 55.8926 35.7741C54.3298 34.2113 52.2101 33.3333 50 33.3333ZM33.3333 41.6666C33.3333 37.2463 35.0893 33.0071 38.2149 29.8815C41.3405 26.7559 45.5797 25 50 25C54.4203 25 58.6595 26.7559 61.7851 29.8815C64.9107 33.0071 66.6667 37.2463 66.6667 41.6666C66.6667 46.0869 64.9107 50.3261 61.7851 53.4517C58.6595 56.5773 54.4203 58.3333 50 58.3333C45.5797 58.3333 41.3405 56.5773 38.2149 53.4517C35.0893 50.3261 33.3333 46.0869 33.3333 41.6666Z" fill="black"/>
</svg>
